<mxfile host="Electron" agent="Mozilla/5.0 (Windows NT 10.0; Win64; x64) AppleWebKit/537.36 (KHTML, like Gecko) draw.io/27.0.9 Chrome/134.0.6998.205 Electron/35.4.0 Safari/537.36" version="27.0.9">
  <diagram name="Page-1" id="LQW6ZIEFZqWHaxQzDhhQ">
    <mxGraphModel dx="2620" dy="1578" grid="1" gridSize="10" guides="1" tooltips="1" connect="1" arrows="1" fold="1" page="1" pageScale="1" pageWidth="1169" pageHeight="827" math="0" shadow="0">
      <root>
        <mxCell id="0" />
        <mxCell id="1" parent="0" />
        <mxCell id="AmeQv4qxTytWQnY_9Zm7-7" value="" style="edgeStyle=orthogonalEdgeStyle;rounded=0;orthogonalLoop=1;jettySize=auto;html=1;" parent="1" source="AmeQv4qxTytWQnY_9Zm7-1" target="AmeQv4qxTytWQnY_9Zm7-3" edge="1">
          <mxGeometry relative="1" as="geometry" />
        </mxCell>
        <mxCell id="AmeQv4qxTytWQnY_9Zm7-1" value="start" style="ellipse;whiteSpace=wrap;html=1;fillColor=#33FF33;" parent="1" vertex="1">
          <mxGeometry x="240" y="-70" width="120" height="80" as="geometry" />
        </mxCell>
        <mxCell id="AmeQv4qxTytWQnY_9Zm7-2" value="End" style="ellipse;whiteSpace=wrap;html=1;fillColor=#FF0000;" parent="1" vertex="1">
          <mxGeometry x="240" y="550" width="120" height="80" as="geometry" />
        </mxCell>
        <mxCell id="AmeQv4qxTytWQnY_9Zm7-16" value="" style="edgeStyle=orthogonalEdgeStyle;rounded=0;orthogonalLoop=1;jettySize=auto;html=1;" parent="1" source="AmeQv4qxTytWQnY_9Zm7-3" target="AmeQv4qxTytWQnY_9Zm7-8" edge="1">
          <mxGeometry relative="1" as="geometry" />
        </mxCell>
        <mxCell id="AmeQv4qxTytWQnY_9Zm7-3" value="&lt;span style=&quot;background-color: transparent; color: light-dark(rgb(0, 0, 0), rgb(255, 255, 255));&quot;&gt;Read: age&amp;nbsp;&lt;/span&gt;&lt;br&gt;&lt;div&gt;Read: Driver license&lt;/div&gt;" style="shape=parallelogram;perimeter=parallelogramPerimeter;whiteSpace=wrap;html=1;fixedSize=1;strokeColor=default;fillColor=#B266FF;align=center;" parent="1" vertex="1">
          <mxGeometry x="230" y="73" width="140" height="60" as="geometry" />
        </mxCell>
        <mxCell id="AmeQv4qxTytWQnY_9Zm7-11" style="edgeStyle=orthogonalEdgeStyle;rounded=0;orthogonalLoop=1;jettySize=auto;html=1;entryX=1;entryY=0.5;entryDx=0;entryDy=0;" parent="1" source="AmeQv4qxTytWQnY_9Zm7-4" target="AmeQv4qxTytWQnY_9Zm7-10" edge="1">
          <mxGeometry relative="1" as="geometry" />
        </mxCell>
        <mxCell id="AmeQv4qxTytWQnY_9Zm7-12" style="edgeStyle=orthogonalEdgeStyle;rounded=0;orthogonalLoop=1;jettySize=auto;html=1;entryX=0;entryY=0.5;entryDx=0;entryDy=0;" parent="1" source="AmeQv4qxTytWQnY_9Zm7-4" target="AmeQv4qxTytWQnY_9Zm7-5" edge="1">
          <mxGeometry relative="1" as="geometry" />
        </mxCell>
        <mxCell id="AmeQv4qxTytWQnY_9Zm7-4" value="result = True" style="rhombus;whiteSpace=wrap;html=1;strokeColor=#FF3399;fillColor=#FF0080;" parent="1" vertex="1">
          <mxGeometry x="260" y="350" width="80" height="80" as="geometry" />
        </mxCell>
        <mxCell id="AmeQv4qxTytWQnY_9Zm7-13" style="edgeStyle=orthogonalEdgeStyle;rounded=0;orthogonalLoop=1;jettySize=auto;html=1;exitX=0.5;exitY=1;exitDx=0;exitDy=0;" parent="1" source="AmeQv4qxTytWQnY_9Zm7-5" target="AmeQv4qxTytWQnY_9Zm7-2" edge="1">
          <mxGeometry relative="1" as="geometry">
            <Array as="points">
              <mxPoint x="530" y="590" />
            </Array>
          </mxGeometry>
        </mxCell>
        <mxCell id="AmeQv4qxTytWQnY_9Zm7-5" value="Print: &quot;Rejected&quot;" style="shape=parallelogram;perimeter=parallelogramPerimeter;whiteSpace=wrap;html=1;fixedSize=1;fillColor=#3333FF;" parent="1" vertex="1">
          <mxGeometry x="470" y="360" width="120" height="60" as="geometry" />
        </mxCell>
        <mxCell id="AmeQv4qxTytWQnY_9Zm7-6" value="#4&lt;div&gt;&lt;div&gt;This flowchart for a program determines job eligibility based&amp;nbsp;&lt;/div&gt;&lt;div&gt;on age and driving license. It reads applicant data,&lt;/div&gt;&lt;div&gt;than checks if the applicant is over 21 years old&amp;nbsp;&lt;/div&gt;&lt;div&gt;and possesses a driving license. Based on these&amp;nbsp;&lt;/div&gt;&lt;div&gt;conditions, the program print either &quot;Hired&quot; or &quot;Rejected&quot;.&lt;/div&gt;&lt;div&gt;&lt;br&gt;&lt;/div&gt;&lt;/div&gt;" style="text;html=1;align=left;verticalAlign=middle;resizable=0;points=[];autosize=1;strokeColor=none;fillColor=none;" parent="1" vertex="1">
          <mxGeometry x="-110" y="8" width="340" height="110" as="geometry" />
        </mxCell>
        <mxCell id="AmeQv4qxTytWQnY_9Zm7-17" value="" style="edgeStyle=orthogonalEdgeStyle;rounded=0;orthogonalLoop=1;jettySize=auto;html=1;" parent="1" source="AmeQv4qxTytWQnY_9Zm7-8" target="AmeQv4qxTytWQnY_9Zm7-4" edge="1">
          <mxGeometry relative="1" as="geometry" />
        </mxCell>
        <mxCell id="AmeQv4qxTytWQnY_9Zm7-8" value="&lt;br&gt;&lt;div style=&quot;text-align: left; text-wrap-mode: nowrap;&quot;&gt;&lt;span style=&quot;background-color: transparent; color: rgb(255, 255, 255);&quot;&gt;&amp;nbsp;&lt;/span&gt;&lt;/div&gt;&lt;div style=&quot;text-align: left; text-wrap-mode: nowrap;&quot;&gt;&lt;span style=&quot;background-color: transparent;&quot;&gt;&amp;nbsp;result = ( age &amp;gt; 21&amp;nbsp;&lt;/span&gt;&lt;/div&gt;&lt;div style=&quot;text-align: left; text-wrap-mode: nowrap;&quot;&gt;&lt;span style=&quot;background-color: transparent;&quot;&gt;and&amp;nbsp;&lt;/span&gt;&lt;/div&gt;&lt;div style=&quot;text-align: left; text-wrap-mode: nowrap;&quot;&gt;&lt;span style=&quot;background-color: transparent;&quot;&gt;has driverLicense&amp;nbsp;&lt;/span&gt;&lt;/div&gt;&lt;div style=&quot;text-align: left; text-wrap-mode: nowrap;&quot;&gt;&lt;span style=&quot;background-color: transparent;&quot;&gt;= True)&lt;/span&gt;&lt;/div&gt;&lt;div style=&quot;text-align: left; text-wrap-mode: nowrap;&quot;&gt;&lt;br&gt;&lt;/div&gt;&lt;div style=&quot;text-align: left; text-wrap-mode: nowrap;&quot;&gt;&lt;font style=&quot;color: rgb(255, 0, 0);&quot;&gt;&lt;br&gt;&lt;/font&gt;&lt;/div&gt;&lt;div style=&quot;text-align: left; text-wrap-mode: nowrap;&quot;&gt;&lt;br&gt;&lt;/div&gt;&lt;div style=&quot;text-align: left; text-wrap-mode: nowrap;&quot;&gt;&amp;nbsp;&lt;/div&gt;" style="rounded=0;whiteSpace=wrap;html=1;fillColor=#FF8000;" parent="1" vertex="1">
          <mxGeometry x="225" y="210" width="150" height="90" as="geometry" />
        </mxCell>
        <mxCell id="AmeQv4qxTytWQnY_9Zm7-15" style="edgeStyle=orthogonalEdgeStyle;rounded=0;orthogonalLoop=1;jettySize=auto;html=1;entryX=0;entryY=0.5;entryDx=0;entryDy=0;" parent="1" source="AmeQv4qxTytWQnY_9Zm7-10" target="AmeQv4qxTytWQnY_9Zm7-2" edge="1">
          <mxGeometry relative="1" as="geometry">
            <Array as="points">
              <mxPoint x="70" y="590" />
            </Array>
          </mxGeometry>
        </mxCell>
        <mxCell id="AmeQv4qxTytWQnY_9Zm7-10" value="Print: &quot;Hired&quot;" style="shape=parallelogram;perimeter=parallelogramPerimeter;whiteSpace=wrap;html=1;fixedSize=1;fillColor=#3333FF;" parent="1" vertex="1">
          <mxGeometry x="10" y="360" width="120" height="60" as="geometry" />
        </mxCell>
      </root>
    </mxGraphModel>
  </diagram>
</mxfile>
